<?xml version="1.0" encoding="utf-8"?>
<!-- Generator: Adobe Illustrator 23.0.1, SVG Export Plug-In . SVG Version: 6.00 Build 0)  -->
<svg version="1.1" id="brand-logo" xmlns="http://www.w3.org/2000/svg" xmlns:xlink="http://www.w3.org/1999/xlink" x="0px" y="0px"
	 viewBox="0 0 58 58" style="enable-background:new 0 0 58 58;" xml:space="preserve">
<g>
	<path d="M31.8,36c-0.2-0.1-0.4,0-0.6,0.1c-0.2,0.1-0.3,0.2-0.4,0.4s-0.1,0.4-0.1,0.6c-0.1,0.2-0.1,0.5-0.2,0.6
		c-0.1,0.2-0.2,0.4-0.2,0.5c-0.1,0.1-0.2,0.2-0.5,0.2c-0.6,0-1.3-0.2-1.7-0.6c-0.5-0.4-0.9-0.8-1.3-1.4c-0.3-0.6-0.6-1.2-1-1.9
		c-0.2-0.7-0.6-1.4-0.9-2.1c-0.3-0.6-0.6-1.4-1-2s-0.8-1.2-1.4-1.5c1.3-0.5,2.4-1.2,3.5-2.1c1-1,2-2.1,2.7-3.3
		c0.7-1.2,1.4-2.5,1.7-3.8c0.4-1.4,0.6-2.5,0.6-3.6c0-0.2-0.1-0.6-0.1-1.2c-0.1-0.5-0.2-1-0.3-1.5c-0.2-0.6-0.5-1.2-0.8-1.7
		s-0.8-1.1-1.4-1.5C28,9.6,27.4,9.3,26.5,9c-0.8-0.2-1.7-0.5-2.9-0.5c-2.1,0-4,0.2-5.5,0.8c-1.5,0.5-2.9,1.2-3.9,2
		c-1,0.8-1.9,1.7-2.6,2.8c-0.7,1-1.2,2-1.6,3c-0.3,1-0.6,1.9-0.7,2.8s-0.2,1.5-0.2,2.1c0,0.7,0.1,1.4,0.3,1.8
		c0.2,0.5,0.5,0.9,0.7,1.2c0.2,0.2,0.6,0.5,0.9,0.6c0.3,0.1,0.6,0.2,0.8,0.2c1.3,0,2.2-0.4,2.8-1.2c0.6-0.8,1-2.1,1-4.1
		c0-0.2-0.1-0.3-0.2-0.4C15.3,20,15.2,20,15.1,20s-0.2,0.1-0.4,0.2c-0.1,0-0.1,0.1-0.1,0.3c0,0.8-0.1,1.5-0.2,2.1
		c-0.1,0.6-0.3,1-0.6,1.4s-0.5,0.6-0.8,0.8c-0.2,0.2-0.6,0.2-0.9,0.2c-0.5,0-0.8-0.2-1-0.8c-0.2-0.6-0.2-1.4-0.2-2.5
		c0-1.4,0.2-2.9,0.8-4.4c0.6-1.5,1.4-2.9,2.4-4.2c1.1-1.2,2.4-2.2,4-3.1C19.7,9.3,21.4,9,23.5,9c0.6,0,1.3,0.1,1.9,0.4
		c0.6,0.2,1.2,0.6,1.7,1.2c0.5,0.6,1,1.3,1.2,2.3c0.3,0.8,0.5,1.9,0.5,3V16c0,1.3-0.2,2.6-0.6,3.9c-0.5,1.4-1,2.5-1.7,3.7
		c-0.7,1.2-1.5,2.1-2.3,3c-0.8,1-1.6,1.6-2.4,2c-0.2-0.1-0.5-0.2-0.8-0.2c-0.2-0.1-0.6-0.1-0.9-0.1c-0.2,0-0.5,0-0.6,0.1
		c0.2-1.2,0.4-2.3,0.6-3.5c0.2-1.2,0.2-2.4,0.2-3.7c0-1.5-0.1-2.8-0.3-3.7c-0.2-0.9-0.5-1.6-0.8-2.1s-0.7-0.8-1.2-1
		c-0.5-0.2-0.9-0.2-1.4-0.2c-0.1,0-0.2,0-0.4,0.1c-0.2,0-0.2,0.1-0.2,0.1s0,0.1,0.1,0.1c0.1,0.1,0.2,0.1,0.6,0.1
		c0.5,0,0.9,0.2,1.2,0.8c0.2,0.6,0.2,1.2,0.2,2.1c0,1.4-0.1,2.8-0.2,4.4c-0.1,1.5-0.2,3-0.5,4.5c-0.2,1.5-0.3,3-0.5,4.4
		c-0.2,1.5-0.2,2.8-0.2,4c0,1.2,0.1,2.2,0.5,3.3c0.3,1,0.6,1.7,1,2.1c0.2,0.2,0.4,0.2,0.6,0c0.2-0.2,0.2-0.4,0.2-0.6
		c-0.2-0.6-0.5-1.4-0.5-2.1s-0.1-1.6,0-2.5c0.1-0.9,0.2-1.8,0.4-2.8s0.4-1.9,0.6-2.9c0.1,0.1,0.2,0.1,0.4,0.1
		c0.2,0.1,0.3,0.1,0.5,0.1c0.3,0,0.7-0.1,1.1-0.1c0.2,0.4,0.6,0.9,0.8,1.5s0.5,1.4,0.7,2.1s0.6,1.4,0.9,2.2s0.8,1.4,1.3,2.1
		c0.5,0.6,1.1,1.1,1.8,1.5c0.7,0.4,1.6,0.6,2.6,0.6c0.6,0,1.1-0.1,1.5-0.2c0.4-0.2,0.7-0.5,1-0.6c0.2-0.2,0.4-0.5,0.5-0.6
		c0.1-0.2,0.2-0.4,0.2-0.5V37c0.1-0.2,0-0.5-0.2-0.6S31.9,36.1,31.8,36z M20.2,28.8c-0.2,0-0.4-0.1-0.6-0.2c0.2-0.1,0.3-0.2,0.5-0.2
		c0.2,0,0.5,0.1,0.8,0.2C20.6,28.7,20.3,28.8,20.2,28.8z"/>
	<path d="M38.8,32.5c-0.3,0.6-0.6,1-1,1.4c-0.2,0.5-0.6,0.8-0.9,1.2c-0.3,0.3-0.6,0.6-0.8,0.6c-0.2,0-0.6-0.2-0.7-0.6
		c-0.1-0.2-0.1-0.6-0.1-0.8v-7.2c0-0.2,0.1-0.7-0.1-1c-0.2-0.2-0.2-0.3-0.5-0.4c-0.2-0.1-0.5-0.1-0.7,0.1c-0.2,0.1-0.5,0.2-0.6,0.6
		c-0.2,0.2-0.5,0.9-0.8,1.7c-0.4,0.9-0.8,1.8-1.3,2.8c-0.5,1-1,1.8-1.4,2.5c-0.5,0.7-0.8,1.1-1.2,1.1c-0.2,0-0.5-0.1-0.6-0.3
		c-0.2-0.2-0.2-0.5-0.2-0.8C28,33.2,28,32.8,28,32.6c-0.1-0.3-0.1-0.6-0.1-0.7c0-0.8,0.1-1.6,0.2-2.2c0.2-0.7,0.4-1.4,0.6-1.8
		c0.2-0.5,0.5-0.9,0.8-1.2c0.2-0.2,0.6-0.5,0.8-0.5c0.2,0,0.4,0.1,0.5,0.2c0.2,0.2,0.2,0.3,0.3,0.6s0.2,0.5,0.2,0.6
		c0.1,0.2,0.1,0.4,0.2,0.6c0.1,0.2,0.2,0.2,0.3,0.2c0.2,0.1,0.3,0.1,0.5,0s0.2-0.2,0.2-0.2s0.1-0.2,0-0.5c-0.2-0.5-0.5-1-0.8-1.4
		c-0.3-0.4-0.9-0.7-1.7-0.7c-0.9,0-1.6,0.2-2.1,0.6c-0.6,0.5-1,1-1.3,1.6c-0.2,0.6-0.5,1.3-0.6,1.9S26,31,26,31.4
		c0,1.2,0.2,2.1,0.6,2.7c0.4,0.6,1,1,1.9,1c0.5,0,0.9-0.2,1.4-0.6c0.5-0.5,1-1,1.4-1.6c0.5-0.6,0.8-1.4,1.2-2.1
		c0.4-0.8,0.7-1.5,1-2.1c0,0.9,0,1.7,0,2.6s0.1,1.7,0.2,2.4c0.2,0.7,0.4,1.4,0.7,1.7c0.3,0.4,0.8,0.6,1.4,0.6c0.3,0,0.6-0.1,0.9-0.2
		c0.4-0.2,0.7-0.5,1-1c0.3-0.5,0.6-0.9,0.7-1.3C38.7,33.4,38.8,33,38.8,32.5C39,32.5,38.9,32.4,38.8,32.5z"/>
</g>
</svg>
